<svg width="276" height="48" viewBox="0 0 276 48" fill="none" xmlns="http://www.w3.org/2000/svg">
<path fill-rule="evenodd" clip-rule="evenodd" d="M142.905 20.0276H145.768V16.2797H142.897V15.2695C142.897 14.4007 143.092 13.7786 143.483 13.4085C143.875 13.04 144.55 12.8558 145.506 12.8558V9C143.028 9 141.212 9.5004 140.059 10.5012C138.906 11.502 138.329 13.0897 138.329 15.2644V16.2746H136.37V20.0276H138.329V34.3532H142.905V20.0276ZM29.6753 13.0213C27.6675 11.7147 25.316 11.036 22.9209 11.0718C20.8207 11.0523 18.7519 11.5815 16.9191 12.6073C15.1141 13.6098 13.6159 15.0848 12.5854 16.874L12.5831 16.878L12.5809 16.882C11.5439 18.7582 11 20.867 11 23.0107C11 25.1545 11.5439 27.2632 12.5809 29.1395L12.5831 29.1434L12.5853 29.1472C13.614 30.935 15.1138 32.4061 16.9211 33.3999C18.757 34.4143 20.8237 34.9374 22.921 34.9188C24.8303 34.9456 26.7146 34.4816 28.3933 33.5713C29.9789 32.7135 31.3453 31.5017 32.3865 30.03C33.2711 28.8013 33.887 27.4025 34.1969 25.9246C34.4616 27.0482 34.8798 28.1348 35.4435 29.1527L35.4455 29.1564L35.4476 29.16C36.4776 30.9502 37.9763 32.4256 39.7824 33.4275L39.7851 33.429C41.6247 34.4351 43.6878 34.9624 45.7846 34.9624C47.8814 34.9624 49.9446 34.4351 51.7842 33.429L51.7871 33.4274C53.5925 32.4248 55.0909 30.9497 56.1216 29.1602L56.1238 29.1563L56.126 29.1523C57.163 27.276 57.707 25.1673 57.707 23.0235C57.707 20.8798 57.163 18.771 56.126 16.8948L56.124 16.8911L56.1219 16.8875C55.0975 15.1028 53.6092 13.6285 51.8149 12.6209L51.6977 12.555H51.6827C49.87 11.5899 47.8473 11.0847 45.7924 11.0847C43.6932 11.0847 41.6277 11.6119 39.7854 12.6179L39.7824 12.6196C37.9763 13.6214 36.4776 15.0969 35.4476 16.8871L35.4455 16.8907L35.4435 16.8944C34.6731 18.2856 34.1743 19.8051 33.968 21.372H21.0355V25.8191H28.3447C28.0798 26.8839 27.4951 27.8477 26.6626 28.5768C25.7197 29.3855 24.4887 29.8085 22.9249 29.8085H22.9199L22.9149 29.8086C21.7608 29.8311 20.6222 29.5406 19.62 28.9679C18.6737 28.4113 17.9069 27.5951 17.4102 26.6161C16.8776 25.4875 16.6014 24.2549 16.6014 23.0069C16.6014 21.7587 16.8776 20.5261 17.4103 19.3974C17.9038 18.4217 18.6704 17.6107 19.6167 17.0632C20.6228 16.4981 21.7614 16.2116 22.9152 16.2334L22.9198 16.2335L22.9245 16.2335C24.0586 16.2343 24.9943 16.4652 25.7533 16.9016C26.5097 17.3364 27.1211 17.9926 27.5826 18.8943L27.7258 19.1742H34.1583L33.9246 18.4932C33.1546 16.2491 31.6604 14.3246 29.6771 13.0224L29.6753 13.0213ZM45.8052 16.2077C46.9534 16.1846 48.0867 16.4709 49.0861 17.0365C50.0238 17.5837 50.7841 18.3892 51.2763 19.3568C51.8122 20.4917 52.0901 21.7312 52.0901 22.9863C52.0901 24.2415 51.8121 25.4812 51.2761 26.6162C50.7824 27.5924 50.0216 28.4083 49.0823 28.969C48.0869 29.542 46.9539 29.8322 45.8055 29.8086L45.7952 29.8083L45.7849 29.8085C44.6308 29.831 43.4921 29.5405 42.4899 28.9678C41.5431 28.4118 40.7761 27.5955 40.2802 26.6159C39.746 25.4878 39.4689 24.2551 39.4689 23.0068C39.4689 21.7584 39.7461 20.5256 40.2803 19.3974C40.7732 18.4207 41.5406 17.6092 42.4882 17.0623C43.4924 16.4882 44.6318 16.1932 45.7885 16.2077L45.7969 16.2078L45.8052 16.2077ZM84.9622 13.1436C86.8904 14.4091 88.3428 16.2802 89.0904 18.4621H83.5766C82.5484 16.4605 80.8082 15.4597 78.3559 15.4597C77.0828 15.4354 75.8262 15.7512 74.716 16.3748C73.6587 16.9863 72.8029 17.8931 72.2534 18.9839C71.6729 20.2078 71.3717 21.5455 71.3717 22.9001C71.3717 24.2547 71.6729 25.5924 72.2534 26.8163C72.8052 27.9095 73.6601 28.8207 74.716 29.4408C75.8226 30.0751 77.0807 30.3967 78.3559 30.3714C80.791 30.3714 82.5313 29.3706 83.5766 27.369H89.0904C88.3459 29.5485 86.8924 31.4156 84.9622 32.672C83.0999 33.8286 80.9657 34.4737 78.7746 34.5423C76.5835 34.6109 74.4131 34.1005 72.4822 33.0627C70.7202 32.0951 69.2583 30.6616 68.2563 28.919C67.2395 27.0814 66.7061 25.0157 66.7061 22.9155C66.7061 20.8154 67.2395 18.7497 68.2563 16.9121C69.2585 15.1685 70.7156 13.7301 72.4719 12.7504C74.4003 11.7039 76.5722 11.1889 78.7651 11.258C80.9581 11.3271 83.0932 11.9778 84.9519 13.1436H84.9622ZM109.876 20.4029C109.08 19.0292 107.916 17.9048 106.516 17.1563H106.519C105.06 16.4063 103.443 16.0151 101.803 16.0151C100.163 16.0151 98.5462 16.4063 97.0874 17.1563C95.6867 17.9042 94.5231 19.0287 93.7277 20.4029C92.8783 21.8881 92.4491 23.5764 92.4861 25.2869C92.4535 26.9947 92.8758 28.6803 93.7097 30.1709C94.4957 31.5547 95.6532 32.6909 97.0514 33.451C98.4941 34.2292 100.111 34.6273 101.75 34.6077C103.405 34.6288 105.038 34.2309 106.498 33.451C107.907 32.6926 109.076 31.5568 109.876 30.1709C110.688 28.6712 111.113 26.9925 111.113 25.2869C111.113 23.5814 110.688 21.9027 109.876 20.4029ZM97.1491 25.3152C97.1508 23.5741 97.5972 22.2357 98.4883 21.3C98.9059 20.8482 99.4141 20.4896 99.9798 20.2478C100.545 20.0059 101.156 19.8862 101.771 19.8965C102.582 19.89 103.38 20.0984 104.084 20.5006C104.819 20.9329 105.413 21.5674 105.796 22.3282C106.256 23.255 106.481 24.281 106.449 25.3152C106.479 26.3395 106.249 27.3545 105.781 28.2662C105.383 29.0322 104.778 29.6715 104.036 30.1118C103.342 30.5173 102.554 30.7311 101.75 30.7313C100.949 30.7385 100.161 30.5298 99.4677 30.1272C98.7424 29.6934 98.1584 29.0586 97.7866 28.2996C97.3367 27.3707 97.118 26.3468 97.1491 25.3152ZM128.589 16.9121C129.662 17.5302 130.529 18.4489 131.085 19.5546C131.723 20.847 132.037 22.2755 131.998 23.7163V34.3532H127.43V24.3693C127.43 22.9555 127.071 21.8724 126.353 21.1201C125.635 20.3678 124.656 19.9925 123.417 19.9942C122.176 19.9942 121.194 20.3695 120.464 21.1201C119.734 21.8707 119.371 22.9555 119.371 24.3693V34.3532H114.77V16.2746H119.371V18.984C119.915 18.0475 120.713 17.2838 121.672 16.781C122.695 16.2548 123.833 15.9899 124.983 16.0099C126.243 15.9888 127.487 16.3 128.589 16.9121ZM166.847 26.8164H153.665C153.729 27.8895 154.196 28.899 154.971 29.644C155.412 30.093 155.953 30.4327 156.549 30.6361C157.145 30.8394 157.781 30.9007 158.405 30.815C159.029 30.7294 159.625 30.4992 160.144 30.1428C160.663 29.7865 161.093 29.3137 161.397 28.7623H166.358C165.847 30.4665 164.778 31.9494 163.322 32.9728C161.821 34.061 160.005 34.6042 157.873 34.6025C156.265 34.6304 154.678 34.2312 153.274 33.4458C151.931 32.6793 150.833 31.5472 150.107 30.1812C149.356 28.6562 148.966 26.979 148.966 25.2792C148.966 23.5793 149.356 21.9022 150.107 20.3772C150.836 19.017 151.941 17.8953 153.29 17.146C154.714 16.3688 156.317 15.9755 157.94 16.0047C159.558 15.9757 161.158 16.3568 162.59 17.1126C163.935 17.8395 165.049 18.9308 165.803 20.2615C166.612 21.7226 167.018 23.3729 166.978 25.0427C166.981 25.6365 166.937 26.2296 166.847 26.8164ZM162.22 23.8448C162.209 23.3011 162.086 22.7654 161.858 22.2714C161.631 21.7774 161.304 21.3355 160.898 20.9735C160.062 20.2485 158.984 19.8641 157.878 19.8965C156.831 19.8717 155.816 20.2583 155.05 20.9735C154.259 21.7332 153.767 22.7524 153.665 23.8448H162.22ZM181.141 16.015C180.044 15.9975 178.968 16.3159 178.057 16.9275C177.119 17.5756 176.361 18.4513 175.854 19.4724V16.2747H171.252V34.3532H175.854V25.2818C175.854 23.6075 176.202 22.4276 176.897 21.7422C177.593 21.0567 178.626 20.7139 179.997 20.7139H181.141V16.015ZM201.664 26.8164H188.48C188.547 27.889 189.013 28.8977 189.786 29.644C190.574 30.3719 191.618 30.759 192.691 30.721C193.453 30.7607 194.211 30.5824 194.876 30.2069C195.432 29.8442 195.892 29.3509 196.215 28.77H201.173C200.663 30.474 199.595 31.957 198.14 32.9805C196.639 34.0687 194.823 34.6119 192.691 34.6102C191.082 34.6382 189.494 34.239 188.089 33.4535C186.747 32.6869 185.649 31.5548 184.925 30.1889C184.173 28.6643 183.781 26.987 183.781 25.2869C183.781 23.5868 184.173 21.9095 184.925 20.3849C185.653 19.0249 186.757 17.9031 188.105 17.1537C189.53 16.3765 191.132 15.9832 192.755 16.0124C194.372 15.9851 195.97 16.3671 197.4 17.1229C198.746 17.8504 199.86 18.9415 200.616 20.2718C201.424 21.7334 201.829 23.3833 201.79 25.053C201.794 25.6431 201.752 26.2327 201.664 26.8164ZM197.037 23.8448C197.027 23.301 196.904 22.7651 196.677 22.271C196.45 21.7769 196.123 21.3351 195.716 20.9735C194.881 20.2487 193.804 19.8643 192.698 19.8965C191.651 19.8706 190.636 20.2574 189.871 20.9735C189.077 21.7322 188.585 22.7518 188.483 23.8448H197.037ZM222.383 19.5546C221.828 18.4483 220.96 17.5295 219.887 16.9121C218.791 16.303 217.555 15.9919 216.301 16.0099C215.15 15.9899 214.012 16.2548 212.988 16.781C212.024 17.2819 211.222 18.0457 210.674 18.984V16.2746H206.073V34.3532H210.674V24.3693C210.674 22.9555 211.037 21.8707 211.767 21.1201C212.497 20.3695 213.479 19.9942 214.72 19.9942C215.962 19.9942 216.939 20.3695 217.658 21.1201C218.376 21.8724 218.735 22.9555 218.735 24.3693V34.3532H223.298V23.7163C223.336 22.2753 223.022 20.8468 222.383 19.5546ZM241.179 17.6139C242.658 18.6815 243.647 20.193 244.148 22.1483H239.189C238.926 21.4819 238.472 20.9085 237.883 20.5006C237.222 20.0783 236.449 19.8676 235.665 19.8965C234.337 19.8965 233.297 20.3806 232.547 21.3488C231.796 22.3171 231.421 23.6392 231.421 25.3152C231.421 26.9894 231.796 28.3107 232.547 29.2789C233.297 30.2472 234.337 30.7313 235.665 30.7313C236.443 30.7667 237.214 30.5736 237.883 30.1761C238.49 29.7519 238.948 29.1463 239.189 28.4461H244.148C243.686 30.2479 242.621 31.8372 241.13 32.9497C239.639 34.0601 237.817 34.6145 235.665 34.6128C234.058 34.6412 232.471 34.2477 231.064 33.4715C229.719 32.7148 228.62 31.5879 227.897 30.2249C227.146 28.6967 226.755 27.0166 226.755 25.3139C226.755 23.6111 227.146 21.9311 227.897 20.4029C228.623 19.0384 229.725 17.9114 231.074 17.1563C232.482 16.3801 234.068 15.9866 235.675 16.015C237.864 16.015 239.698 16.5479 241.179 17.6139ZM251.685 26.8164H264.866C264.957 26.2322 265.001 25.6416 264.997 25.0504C265.037 23.3806 264.632 21.7303 263.823 20.2692C263.069 18.9385 261.955 17.8472 260.609 17.1203C259.178 16.3646 257.578 15.9834 255.959 16.0124C254.337 15.9832 252.734 16.3765 251.309 17.1537C249.961 17.9038 248.856 19.0253 248.127 20.3849C247.376 21.9099 246.985 23.5871 246.985 25.2869C246.985 26.9868 247.376 28.6639 248.127 30.1889C248.853 31.5544 249.951 32.6863 251.294 33.4535C252.698 34.2393 254.286 34.6384 255.895 34.6102C258.029 34.612 259.844 34.0687 261.342 32.9805C262.798 31.9572 263.867 30.4743 264.378 28.77H259.419C259.097 29.3509 258.637 29.8442 258.08 30.2069C257.415 30.5824 256.657 30.7607 255.895 30.721C254.823 30.759 253.779 30.372 252.99 29.644C252.216 28.8983 251.75 27.8892 251.685 26.8164ZM259.879 22.271C260.106 22.7652 260.229 23.301 260.239 23.8448H251.685C251.786 22.7518 252.279 21.7322 253.073 20.9735C253.837 20.2574 254.853 19.8706 255.9 19.8965C257.006 19.8648 258.082 20.2492 258.918 20.9735C259.324 21.3351 259.652 21.7769 259.879 22.271Z" fill="#2E353B"/>
</svg>
